<svg width="261" height="77" viewBox="0 0 261 77" fill="none" xmlns="http://www.w3.org/2000/svg">
<path d="M83.4113 27.1953C80.4678 24.2863 76.5057 22.6874 72.2625 22.6874C68.0194 22.6874 64.0642 24.2863 61.1207 27.1953C58.1702 30.1114 56.5474 34.0136 56.5474 38.1835C56.5474 42.3534 58.1702 46.2626 61.1207 49.1717C64.0642 52.0807 68.0264 53.6796 72.2625 53.6796C76.4987 53.6796 80.4608 52.0807 83.4043 49.1717C86.3549 46.2556 87.9777 42.3534 87.9777 38.1835C87.9777 34.0136 86.3549 30.1044 83.4113 27.1953ZM72.2625 47.6432C66.783 47.6432 62.4836 43.4874 62.4836 38.1765C62.4836 32.8655 66.783 28.7097 72.2625 28.7097C77.7421 28.7097 82.0415 32.8655 82.0415 38.1765C82.0415 43.4874 77.7421 47.6432 72.2625 47.6432Z" fill="#97D700"/>
<path d="M24 30.3437H35.8584V52.0876H42.455V30.3437H54.3133V24.2791H24V30.3507V30.3437Z" fill="#97D700"/>
<path d="M185.83 24.4129L178.348 44.3465L170.726 24.2791H159.823V52.0946H165.935V28.6884L174.674 52.0946H182.008L190.748 28.6884V52.0946H196.859V24.2791H185.823V24.4129H185.83Z" fill="#97D700"/>
<path d="M105.941 37.7889L96.3375 24.2791H88.9681L102.878 43.8676V52.0946H109.004V43.8676L122.913 24.2791H115.544L105.941 37.7889Z" fill="#97D700"/>
<path d="M137.378 29.4773L147.655 52.0946H154.35L141.487 24.2791H133.128L120.391 52.1017H126.946L137.364 29.4773H137.378Z" fill="#97D700"/>
<path d="M202.353 52.0877H209.048L219.326 29.4703L229.533 52.0877H236.298L223.562 24.2721H215.195L202.36 52.0877H202.353Z" fill="#97D700"/>
</svg>
